<?xml version="1.0" encoding="utf-8"?>
<!-- Generator: Adobe Illustrator 15.1.0, SVG Export Plug-In . SVG Version: 6.00 Build 0)  -->
<!DOCTYPE svg PUBLIC "-//W3C//DTD SVG 1.1//EN" "http://www.w3.org/Graphics/SVG/1.1/DTD/svg11.dtd">
<svg version="1.1" id="레이어_1" xmlns="http://www.w3.org/2000/svg" xmlns:xlink="http://www.w3.org/1999/xlink" x="0px"
	 y="0px" width="38px" height="49px" viewBox="0 0 38 49" enable-background="new 0 0 38 49" xml:space="preserve">
<path fill="none" d="M10.54,6.54C6.75,8.8,4.69,12.91,4.69,18.56c0,5.76,4.7,11.78,8.03,15.32c-1.78-4.94-4.03-12.19-4.03-17.32
	C8.69,12.26,9.41,8.98,10.54,6.54z"/>
<path fill="none" d="M35.529,11.385c-0.001,0.038-0.01,0.072-0.012,0.109c0.001,0,0.001,0.001,0.001,0.002
	c0.002-0.036,0.011-0.07,0.011-0.106C35.529,11.388,35.529,11.387,35.529,11.385z"/>
<path fill="none" d="M18.69,4.56c-2.77,0-6,3.14-6,12c0,6.19,3.93,16.51,5.34,20h1.32c1.4-3.5,5.339-13.841,5.339-20
	C24.689,7.7,21.46,4.56,18.69,4.56z"/>
<path fill="#222222" d="M33.529,13.38c-1.107,0-1.997-0.887-2-1.995c0,0.002,0,0.003,0,0.005c0,1.11,0.891,2,2,2
	c1.075,0,1.934-0.835,1.989-1.894c0-0.001,0-0.002-0.001-0.002C35.459,12.549,34.602,13.38,33.529,13.38z"/>
<polygon fill="#222222" points="20.689,44.561 16.69,44.561 16.69,42.561 12.69,42.561 12.69,48.561 24.689,48.561 24.689,42.561 
	20.689,42.561 "/>
<polygon fill="#222222" points="18.68,0.56 18.685,0.56 18.69,0.56 "/>
<path fill="#222222" d="M33.529,15.39c-0.396,0-0.771-0.076-1.133-0.184c0.181,1.053,0.293,2.161,0.293,3.354
	c0,5.65-4.709,11.78-8.039,15.32c1.779-4.95,4.039-12.21,4.039-17.32c0-4.3-0.72-7.57-1.85-10.02
	c1.274,0.759,2.337,1.748,3.209,2.918c0.663-1.189,1.902-2.003,3.341-2.054c-3.067-4.293-8.145-6.843-14.705-6.844
	C7.578,0.563,0.69,7.462,0.69,18.56c0,11.1,12.2,21.1,12.71,21.53l0.56,0.471h9.45l0.56-0.471c0.521-0.439,12.71-10.779,12.71-21.53
	c0-1.499-0.147-2.92-0.408-4.272C35.554,14.967,34.591,15.39,33.529,15.39z M4.69,18.56c0-5.65,2.06-9.76,5.85-12.02
	c-1.13,2.44-1.85,5.72-1.85,10.02c0,5.13,2.25,12.379,4.03,17.32C9.39,30.34,4.69,24.32,4.69,18.56z M19.35,36.561h-1.32
	c-1.41-3.49-5.34-13.811-5.34-20c0-8.86,3.23-12,6-12s6,3.14,6,12C24.689,22.72,20.75,33.061,19.35,36.561z"/>
<path fill="#FB0033" d="M34.863,9.906c0.241,0.512,0.46,1.041,0.654,1.588c0.002-0.037,0.011-0.071,0.012-0.109
	C35.527,10.793,35.269,10.27,34.863,9.906z"/>
<path fill="#FB0033" d="M33.529,13.38c1.072,0,1.93-0.831,1.988-1.886c-0.194-0.547-0.413-1.076-0.654-1.588
	C34.51,9.588,34.046,9.39,33.529,9.39c-1.107,0-1.997,0.888-2,1.995C31.532,12.493,32.422,13.38,33.529,13.38z"/>
<path fill="#FFFFFF" d="M35.529,11.385c0-0.001,0-0.003,0-0.005c0-0.597-0.263-1.125-0.673-1.49
	c0.002,0.005,0.005,0.011,0.007,0.016C35.269,10.27,35.527,10.793,35.529,11.385z"/>
<path fill="#FFFFFF" d="M33.529,9.39c0.517,0,0.98,0.198,1.334,0.516C34.861,9.9,34.858,9.895,34.856,9.89
	c-0.353-0.314-0.813-0.51-1.327-0.51c-1.109,0-2,0.9-2,2c0,0.002,0,0.003,0,0.005C31.532,10.278,32.422,9.39,33.529,9.39z"/>
</svg>
