<?xml version="1.0" encoding="utf-8"?>
<!-- Generator: Adobe Illustrator 15.1.0, SVG Export Plug-In . SVG Version: 6.00 Build 0)  -->
<!DOCTYPE svg PUBLIC "-//W3C//DTD SVG 1.1//EN" "http://www.w3.org/Graphics/SVG/1.1/DTD/svg11.dtd">
<svg version="1.1" id="레이어_1" xmlns="http://www.w3.org/2000/svg" xmlns:xlink="http://www.w3.org/1999/xlink" x="0px"
	 y="0px" width="48px" height="49px" viewBox="0 0 48 49" enable-background="new 0 0 48 49" xml:space="preserve">
<polygon fill="#222222" points="47.26,27.84 44.43,25.01 33.01,36.42 9.01,36.43 0.43,45.01 3.26,47.84 10.67,40.42 31.48,40.42 
	35.27,48.439 38.891,46.73 35.51,39.58 "/>
<path fill="#222222" d="M6.73,32.12v-0.011c2.59-5.25,8.04-8.64,13.88-8.64c0.88,0,1.75,0.1,2.61,0.25l4.12,8.71h4.43l-4.91-10.38
	c2.94-4.83,8.131-7.81,13.83-7.81c1.09,0,2.19,0.11,3.271,0.33l2.09-3.03c-1.665-2.616-3.772-4.821-6.215-6.58
	c-0.019,1.486-0.856,2.761-2.072,3.436c0.764,0.57,1.501,1.176,2.177,1.854c-6.709,0.25-12.799,3.79-16.359,9.44
	c-6.6-1.01-13.36,1.57-17.66,6.49c-0.26-2.86,0.1-5.74,1.09-8.5C9.85,9.75,17.42,4.42,25.84,4.42c2.047,0,4.081,0.337,6.048,0.962
	c-0.019-0.157-0.048-0.31-0.048-0.472c0-1.321,0.651-2.482,1.639-3.21c-2.48-0.836-5.046-1.27-7.648-1.27
	c-10.1,0-19.18,6.39-22.59,15.91c-1.81,5.04-1.88,10.4-0.21,15.52L6.73,32.12z"/>
<path fill="#222222" d="M35.84,6.91c1.11,0,2-0.89,2-2C37.84,6.01,36.95,6.91,35.84,6.91z"/>
<path fill="#FB0033" d="M34.534,6.417c0.216,0.187,0.471,0.326,0.754,0.407C35.036,6.689,34.793,6.541,34.534,6.417z"/>
<path fill="#FB0033" d="M35.84,6.91c1.11,0,2-0.9,2-2c0-1.11-0.89-2-2-2c-1.109,0-2,0.89-2,2c0,0.606,0.271,1.141,0.694,1.507
	c0.259,0.124,0.502,0.272,0.754,0.407C35.464,6.875,35.646,6.91,35.84,6.91z"/>
</svg>
