<?xml version="1.0" encoding="utf-8"?>
<!-- Generator: Adobe Illustrator 15.1.0, SVG Export Plug-In . SVG Version: 6.00 Build 0)  -->
<!DOCTYPE svg PUBLIC "-//W3C//DTD SVG 1.1//EN" "http://www.w3.org/Graphics/SVG/1.1/DTD/svg11.dtd">
<svg version="1.1" id="레이어_1" xmlns="http://www.w3.org/2000/svg" xmlns:xlink="http://www.w3.org/1999/xlink" x="0px"
	 y="0px" width="38px" height="48px" viewBox="0 0 38 48" enable-background="new 0 0 38 48" xml:space="preserve">
<path fill="none" d="M8.76,12.09c2.21,0,4-1.79,4-4s-1.8-4-4-4c-2.21,0-4,1.79-4,4S6.55,12.09,8.76,12.09z"/>
<path fill="none" d="M25.95,23.27l-7.19,7.169l-7.18-7.169c-0.77-0.77-1.77-1.19-2.84-1.19c-1.07,0-2.07,0.42-2.82,1.17
	c-1.55,1.561-1.55,4.1,0,5.65L18.75,41.76l12.82-12.84c0.77-0.75,1.18-1.75,1.18-2.83s-0.41-2.08-1.16-2.81
	C30.061,21.75,27.46,21.76,25.95,23.27z"/>
<path fill="#222222" d="M23.75,19.85h0.02l-5.02,4.93l-4.34-4.34c-3.01-3.04-8.29-3.05-11.32-0.02c-3.1,3.13-3.1,8.2,0,11.3
	l15.65,15.7l15.64-15.66c1.521-1.5,2.36-3.51,2.36-5.67c0-2.16-0.84-4.17-2.35-5.65C31.58,17.63,26.8,17.4,23.75,19.85z
	 M31.57,28.92L18.75,41.76L5.92,28.9c-1.55-1.551-1.55-4.09,0-5.65c0.75-0.75,1.75-1.17,2.82-1.17c1.07,0,2.07,0.42,2.84,1.19
	l7.18,7.169l7.19-7.169c1.51-1.51,4.11-1.52,5.64,0.01c0.75,0.729,1.16,1.729,1.16,2.81S32.34,28.17,31.57,28.92z"/>
<path fill="#222222" d="M33.311,8.18c-0.189,0-0.371-0.03-0.555-0.056c-0.019,2.194-1.797,3.966-3.996,3.966c-2.21,0-4-1.79-4-4
	s1.79-4,4-4c0.189,0,0.371,0.03,0.555,0.056c0.013-1.565,0.933-2.903,2.251-3.548c-0.874-0.33-1.817-0.518-2.806-0.518
	c-4.41,0-8,3.59-8,8s3.59,8,8,8s8-3.59,8-8c0-0.557-0.058-1.1-0.167-1.625C35.869,7.496,34.667,8.18,33.311,8.18z"/>
<path fill="#222222" d="M33.311,6.18c1.109,0,2-0.89,2-2C35.311,5.28,34.42,6.18,33.311,6.18z"/>
<path fill="#222222" d="M8.76,16.08c4.41,0,8-3.59,8-8s-3.59-8-8-8c-4.41,0-8,3.59-8,8S4.35,16.08,8.76,16.08z M8.76,4.09
	c2.2,0,4,1.79,4,4s-1.79,4-4,4c-2.21,0-4-1.79-4-4S6.55,4.09,8.76,4.09z"/>
<path fill="#FB0033" d="M33.311,2.18c-1.11,0-2,0.89-2,2c0,1.11,0.89,2,2,2c1.109,0,2-0.9,2-2c0-0.521-0.201-0.989-0.524-1.344
	c-0.027-0.031-0.056-0.061-0.084-0.092C34.343,2.396,33.854,2.18,33.311,2.18z"/>
</svg>
