<?xml version="1.0" encoding="utf-8"?>
<!-- Generator: Adobe Illustrator 15.1.0, SVG Export Plug-In . SVG Version: 6.00 Build 0)  -->
<!DOCTYPE svg PUBLIC "-//W3C//DTD SVG 1.1//EN" "http://www.w3.org/Graphics/SVG/1.1/DTD/svg11.dtd">
<svg version="1.1" id="레이어_1" xmlns="http://www.w3.org/2000/svg" xmlns:xlink="http://www.w3.org/1999/xlink" x="0px"
	 y="0px" width="48px" height="47px" viewBox="0 0 48 47" enable-background="new 0 0 48 47" xml:space="preserve">
<path fill="none" d="M23.89,10.97c-8.82,0-16,7.18-16,16c0,8.82,7.18,16,16,16c8.82,0,16-7.18,16-16
	C39.891,18.15,32.71,10.97,23.89,10.97z M25.88,29.939L19.3,36.53l-2.83-2.83l5.41-5.41v-0.01V16.04h4V29.939z"/>
<polygon fill="#222222" points="21.88,28.28 21.88,28.29 16.47,33.7 19.3,36.53 25.88,29.939 25.88,16.04 21.88,16.04 "/>
<path fill="#222222" d="M35.79,6.04c1.11,0,2-0.89,2-2C37.79,5.14,36.9,6.04,35.79,6.04z"/>
<path fill="#222222" d="M40.34,4.33V4.32c-0.184-0.133-0.374-0.254-0.561-0.382C39.78,3.973,39.79,4.005,39.79,4.04
	c0,1.456-0.789,2.717-1.951,3.417c0.05,0.035,0.102,0.067,0.151,0.103c2.479,1.8,4.56,4.03,6.21,6.63l3.38-2.13
	C45.67,9.02,43.23,6.42,40.34,4.33z"/>
<path fill="#222222" d="M23.89,6.97c-11.03,0-20,8.97-20,20c0,11.03,8.97,20,20,20c11.03,0,20-8.97,20-20
	C43.891,15.94,34.92,6.97,23.89,6.97z M23.89,42.97c-8.82,0-16-7.18-16-16c0-8.82,7.18-16,16-16c8.82,0,16,7.18,16,16
	C39.891,35.79,32.71,42.97,23.89,42.97z"/>
<path fill="#222222" d="M9.77,7.7h0.01c1.51-1.1,3.15-2.02,4.88-2.74l-1.54-3.69c-2.02,0.84-3.93,1.91-5.7,3.19
	c-2.96,2.15-5.39,4.7-7.23,7.58l3.37,2.15C5.13,11.74,7.22,9.55,9.77,7.7z"/>
<path fill="#FB0033" d="M34.281,5.345c0.322,0.372,0.776,0.619,1.295,0.674C35.151,5.78,34.719,5.557,34.281,5.345z"/>
<path fill="#FB0033" d="M35.79,6.04c1.11,0,2-0.9,2-2c0-1.11-0.89-2-2-2s-2,0.89-2,2c0,0.502,0.188,0.955,0.491,1.305
	c0.438,0.212,0.87,0.436,1.295,0.674C35.647,6.026,35.717,6.04,35.79,6.04z"/>
</svg>
