<?xml version="1.0" encoding="utf-8"?>
<!-- Generator: Adobe Illustrator 15.1.0, SVG Export Plug-In . SVG Version: 6.00 Build 0)  -->
<!DOCTYPE svg PUBLIC "-//W3C//DTD SVG 1.1//EN" "http://www.w3.org/Graphics/SVG/1.1/DTD/svg11.dtd">
<svg version="1.1" id="레이어_1" xmlns="http://www.w3.org/2000/svg" xmlns:xlink="http://www.w3.org/1999/xlink" x="0px"
	 y="0px" width="49px" height="46px" viewBox="0 0 49 46" enable-background="new 0 0 49 46" xml:space="preserve">
<path fill="none" d="M4.64,13.57c0,2.21,1.8,4,4,4v-8C6.44,9.57,4.64,11.36,4.64,13.57z"/>
<path fill="none" d="M40.779,9.57h-0.139v8h0.139c2.201,0,4-1.79,4-4C44.779,11.36,42.98,9.57,40.779,9.57z"/>
<path fill="#222222" d="M32.66,2.1c-1.11,0-2,0.89-2,2C30.66,3,31.55,2.1,32.66,2.1z"/>
<path fill="#222222" d="M40.79,5.57h-0.011h-0.139V1.6H35.76c0.555,0.687,0.9,1.548,0.9,2.5c0,0.531-0.108,1.036-0.297,1.5h0.277v14
	c0,6.62-5.381,12-12,12c-6.62,0-12-5.38-12-12v-14h16.317c-0.188-0.464-0.297-0.969-0.297-1.5c0-0.952,0.346-1.813,0.9-2.5H8.64
	v3.97c-4.41,0-8,3.59-8,8c0,4.41,3.59,8,8,8h0.14c0.89,7.241,6.63,12.98,13.86,13.89v4.101h4V35.46
	c7.229-0.91,12.969-6.649,13.869-13.89h0.28c4.41,0,7.86-3.59,7.86-8C48.65,9.16,45.2,5.57,40.79,5.57z M8.64,17.57
	c-2.2,0-4-1.79-4-4c0-2.21,1.8-4,4-4V17.57z M40.779,17.57h-0.139v-8h0.139c2.201,0,4,1.79,4,4
	C44.779,15.78,42.98,17.57,40.779,17.57z"/>
<path fill="#222222" d="M18.64,19.58V15.6h-3.97v3.98c0,5.51,4.47,9.99,9.97,9.99v-4C21.35,25.57,18.64,22.88,18.64,19.58z"/>
<path fill="#222222" d="M30.66,41.6h-12c-2.21,0-4,1.791-4,4h20C34.66,43.391,32.87,41.6,30.66,41.6z"/>
<path fill="#FB0033" d="M32.66,2.1c-1.11,0-2,0.9-2,2c0,0.603,0.268,1.134,0.686,1.5c0.352,0.308,0.807,0.5,1.314,0.5
	c0.507,0,0.963-0.192,1.314-0.5c0.418-0.366,0.686-0.897,0.686-1.5C34.66,2.99,33.77,2.1,32.66,2.1z"/>
</svg>
