<?xml version="1.0" encoding="utf-8"?>
<!-- Generator: Adobe Illustrator 15.1.0, SVG Export Plug-In . SVG Version: 6.00 Build 0)  -->
<!DOCTYPE svg PUBLIC "-//W3C//DTD SVG 1.1//EN" "http://www.w3.org/Graphics/SVG/1.1/DTD/svg11.dtd">
<svg version="1.1" id="레이어_1" xmlns="http://www.w3.org/2000/svg" xmlns:xlink="http://www.w3.org/1999/xlink" x="0px"
	 y="0px" width="50px" height="49px" viewBox="0 0 50 49" enable-background="new 0 0 50 49" xml:space="preserve">
<path fill="none" d="M28.52,28.62c0-2.21-1.799-4.01-4.01-4.01c-2.21,0-4.01,1.8-4.01,4.01s1.8,4.01,4.01,4.01
	C26.721,32.63,28.52,30.83,28.52,28.62z"/>
<path fill="#222222" d="M32.52,28.62c0-4.42-3.59-8.01-8.01-8.01s-8.01,3.59-8.01,8.01s3.59,8.01,8.01,8.01S32.52,33.04,32.52,28.62
	z M20.5,28.62c0-2.21,1.8-4.01,4.01-4.01c2.211,0,4.01,1.8,4.01,4.01s-1.799,4.01-4.01,4.01C22.3,32.63,20.5,30.83,20.5,28.62z"/>
<path fill="#222222" d="M45.84,13.85c1.108,0,1.997,0.888,2,1.995c0-0.001,0-0.003,0-0.005c0-1.11-0.89-2-2-2c-1.109,0-2,0.89-2,2
	c0,0.002,0,0.003,0,0.005C43.843,14.738,44.732,13.85,45.84,13.85z"/>
<path fill="#222222" d="M11.33,43l-0.82,0.6v5.01h4V45.65c6.09-4,13.91-4,20,0v2.959h4V43.6L37.7,43
	C29.811,37.2,19.22,37.2,11.33,43z"/>
<path fill="#222222" d="M46.51,20.05c0.216-0.125,0.413-0.275,0.602-0.437c-0.402,0.136-0.825,0.227-1.271,0.227
	c-2.199,0-4-1.79-4-4c0-1.208,0.549-2.276,1.396-3.01c-0.224,0.079-0.441,0.169-0.646,0.28L28.51,4.66c0,0,0-0.04,0-0.06
	c0-2.21-1.789-4-4-4c-2.21,0-4,1.79-4,4c0,0.02,0,0.04,0,0.06L6.43,13.12c-0.57-0.32-1.22-0.51-1.93-0.51c-2.21,0-4,1.79-4,4
	c0,1.48,0.81,2.75,2,3.45v15.11c-1.19,0.689-2,1.971-2,3.45c0,2.21,1.79,4,4,4s3.95-1.75,3.99-3.931l6.07-3.34
	c-0.75-1.1-1.3-2.34-1.65-3.649l-6.36,3.5c0,0-0.03-0.021-0.05-0.03V20.06c0,0,0.04-0.02,0.06-0.03l6.93,3.81
	c0.54-1.24,1.3-2.37,2.21-3.35l-7.19-3.95l13.98-8.4v8.67c0.65-0.11,1.31-0.18,2-0.18c0.69,0,1.35,0.07,2,0.18V8.15l13.99,8.39
	l-7.201,3.95c0.91,0.979,1.66,2.11,2.201,3.36l6.949-3.82c0,0,0.041,0.02,0.051,0.03v15.11c0,0-0.03,0.02-0.041,0.03l-6.369-3.5
	c-0.35,1.319-0.91,2.55-1.66,3.659l6.08,3.341c0.039,2.18,1.81,3.93,3.99,3.93c2.18,0,4-1.79,4-4c0-1.479-0.811-2.75-2-3.45
	l0.029-0.02V20.05z"/>
<path fill="#FB0033" d="M45.84,17.84c1.108,0,1.997-0.887,2-1.995c-0.003-1.107-0.892-1.995-2-1.995c-1.107,0-1.997,0.888-2,1.995
	C43.843,16.953,44.732,17.84,45.84,17.84z"/>
<path fill="#FFFFFF" d="M45.84,17.85c1.11,0,2-0.9,2-2c0-0.002,0-0.003,0-0.005c-0.003,1.108-0.892,1.995-2,1.995
	c-1.107,0-1.997-0.887-2-1.995c0,0.002,0,0.003,0,0.005C43.84,16.96,44.73,17.85,45.84,17.85z"/>
</svg>
