<?xml version="1.0" encoding="utf-8"?>
<!-- Generator: Adobe Illustrator 15.1.0, SVG Export Plug-In . SVG Version: 6.00 Build 0)  -->
<!DOCTYPE svg PUBLIC "-//W3C//DTD SVG 1.1//EN" "http://www.w3.org/Graphics/SVG/1.1/DTD/svg11.dtd">
<svg version="1.1" id="레이어_1" xmlns="http://www.w3.org/2000/svg" xmlns:xlink="http://www.w3.org/1999/xlink" x="0px"
	 y="0px" width="41px" height="49px" viewBox="0 0 41 49" enable-background="new 0 0 41 49" xml:space="preserve">
<path fill="none" d="M34.825,6.398c0.012,0.011,0.023,0.02,0.034,0.031c-0.043-0.05-0.1-0.086-0.146-0.132
	C34.75,6.332,34.792,6.36,34.825,6.398z"/>
<rect x="10.84" y="44.68" fill="#222222" width="20" height="4"/>
<path fill="#222222" d="M37.094,9.056c-0.475,1.335-1.628,2.341-3.055,2.593c1.764,2.569,2.801,5.675,2.801,9.021
	c0,5.16-2.52,10.03-6.74,13.03v0.01c-1.629,1.16-2.729,2.95-3.119,4.97H14.69c-0.39-2.01-1.56-3.83-3.35-5.149
	c-4.11-3.04-6.48-7.71-6.5-12.8c-0.03-8.59,6.93-15.79,15.5-16.05h0.5c3.147,0,6.077,0.925,8.555,2.5
	c0.198-1.45,1.162-2.651,2.479-3.173C28.71,1.909,24.923,0.68,20.85,0.68h-0.01h-0.62C9.5,1.01,0.8,10.01,0.84,20.75
	c0.02,6.37,2.98,12.2,8.12,16c1.19,0.88,1.88,2.13,1.88,3.43v2.5h20v-2.42c0-1.359,0.59-2.59,1.58-3.29
	c5.28-3.75,8.43-9.84,8.43-16.29C40.85,16.343,39.448,12.336,37.094,9.056z"/>
<path fill="#222222" d="M35.34,7.725c0-0.001,0-0.003,0-0.005c0-0.496-0.185-0.942-0.48-1.291c-0.011-0.011-0.022-0.02-0.034-0.031
	C35.142,6.75,35.338,7.211,35.34,7.725z"/>
<path fill="#222222" d="M33.34,5.73c0.437,0,0.838,0.142,1.166,0.377c-0.023-0.017-0.039-0.041-0.063-0.057
	C34.128,5.842,33.749,5.72,33.34,5.72c-1.109,0-2,0.89-2,2c0,0.002,0,0.003,0,0.005C31.343,6.618,32.232,5.73,33.34,5.73z"/>
<polygon fill="#222222" points="20.82,21.81 14.48,15.52 9.17,23.57 12.51,25.78 15.13,21.8 20.83,27.46 26.5,21.8 29.18,25.78 
	32.5,23.55 27.12,15.53 "/>
<path fill="#FB0033" d="M34.714,6.296c-0.066-0.066-0.133-0.133-0.208-0.189C34.178,5.872,33.776,5.73,33.34,5.73
	c-1.107,0-1.997,0.888-2,1.995c0.003,1.108,0.902,1.995,2,1.995s1.997-0.887,2-1.995c-0.002-0.513-0.198-0.974-0.515-1.327
	C34.792,6.36,34.75,6.332,34.714,6.296z"/>
<path fill="#FFFFFF" d="M34.507,6.108c-0.021-0.02-0.043-0.038-0.063-0.057C34.467,6.066,34.482,6.091,34.507,6.108
	C34.506,6.107,34.507,6.107,34.507,6.108z"/>
<path fill="#FFFFFF" d="M34.714,6.296c-0.067-0.065-0.131-0.133-0.207-0.188c0,0-0.001,0-0.001,0
	C34.581,6.163,34.647,6.23,34.714,6.296z"/>
<path fill="#FFFFFF" d="M33.34,9.72c-1.098,0-1.997-0.887-2-1.995c0,0.002,0,0.003,0,0.005c0,1.11,0.9,2,2,2s2-0.9,2-2
	c0-0.002,0-0.003,0-0.005C35.337,8.833,34.438,9.72,33.34,9.72z"/>
</svg>
