<svg width="52" height="33" viewBox="0 0 52 33" fill="none" xmlns="http://www.w3.org/2000/svg">
<path fill-rule="evenodd" clip-rule="evenodd" d="M35.5 2C43.5081 2 50 8.49187 50 16.5C50 24.5081 43.5081 31 35.5 31C27.6592 31 21.272 24.7766 21.0085 17L37.1716 17L32.5858 21.5858L34 23L39.5858 17.4142L41 16L39.5858 14.5858L34 8.99999L32.5858 10.4142L37.1716 15L21.0766 15C21.8272 7.69666 27.9984 2 35.5 2ZM19.0673 15C19.8251 6.59024 26.8929 -2.19493e-06 35.5 -1.44248e-06C44.6127 -6.45818e-07 52 7.3873 52 16.5C52 25.6127 44.6127 33 35.5 33C26.5546 33 19.2718 25.8814 19.0074 17L1.39877e-06 17L1.57361e-06 15L19.0673 15Z" fill="#222222"/>
</svg>
