<?xml version="1.0" encoding="utf-8"?>
<!-- Generator: Adobe Illustrator 15.1.0, SVG Export Plug-In . SVG Version: 6.00 Build 0)  -->
<!DOCTYPE svg PUBLIC "-//W3C//DTD SVG 1.1//EN" "http://www.w3.org/Graphics/SVG/1.1/DTD/svg11.dtd">
<svg version="1.1" id="레이어_1" xmlns="http://www.w3.org/2000/svg" xmlns:xlink="http://www.w3.org/1999/xlink" x="0px"
	 y="0px" width="16px" height="30px" viewBox="0 0 16 30" enable-background="new 0 0 16 30" xml:space="preserve">
<g>
	<path fill="#222222" d="M9,15H7V7h2V15z"/>
	<path fill="#222222" d="M8,0C3.582,0,0,3.582,0,8v14c0,4.418,3.582,8,8,8c4.418,0,8-3.582,8-8V8C16,3.582,12.418,0,8,0z M14,22
		c0,3.313-2.687,6-6,6s-6-2.687-6-6V8c0-3.313,2.687-6,6-6s6,2.687,6,6V22z"/>
	<rect x="7" y="7" fill="#222222" width="2" height="8"/>
</g>
</svg>
