<?xml version="1.0" encoding="utf-8"?>
<!-- Generator: Adobe Illustrator 15.1.0, SVG Export Plug-In . SVG Version: 6.00 Build 0)  -->
<!DOCTYPE svg PUBLIC "-//W3C//DTD SVG 1.1//EN" "http://www.w3.org/Graphics/SVG/1.1/DTD/svg11.dtd">
<svg version="1.1" id="레이어_1" xmlns="http://www.w3.org/2000/svg" xmlns:xlink="http://www.w3.org/1999/xlink" x="0px"
	 y="0px" width="33px" height="33px" viewBox="0 0 33 33" enable-background="new 0 0 33 33" xml:space="preserve">
<g>
	<path fill="none" d="M16.5,2C8.492,2,2,8.492,2,16.5C2,24.508,8.492,31,16.5,31C24.508,31,31,24.508,31,16.5
		C31,8.492,24.508,2,16.5,2z M21.586,17.414L17,12.828V25.5h-2V12.828l-4.586,4.586L9,16l5.586-5.586L16,9l1.414,1.414L23,16
		L21.586,17.414z"/>
	<polygon fill="#222222" points="16,9 14.586,10.414 9,16 10.414,17.414 15,12.828 15,25.5 17,25.5 17,12.828 21.586,17.414 23,16 
		17.414,10.414 	"/>
	<path fill="#222222" d="M16.5,0C7.387,0,0,7.387,0,16.5C0,25.613,7.387,33,16.5,33C25.613,33,33,25.613,33,16.5
		C33,7.387,25.613,0,16.5,0z M16.5,31C8.492,31,2,24.508,2,16.5C2,8.492,8.492,2,16.5,2C24.508,2,31,8.492,31,16.5
		C31,24.508,24.508,31,16.5,31z"/>
</g>
</svg>
