<?xml version="1.0" encoding="utf-8"?>
<!-- Generator: Adobe Illustrator 15.1.0, SVG Export Plug-In . SVG Version: 6.00 Build 0)  -->
<!DOCTYPE svg PUBLIC "-//W3C//DTD SVG 1.1//EN" "http://www.w3.org/Graphics/SVG/1.1/DTD/svg11.dtd">
<svg version="1.1" id="레이어_1" xmlns="http://www.w3.org/2000/svg" xmlns:xlink="http://www.w3.org/1999/xlink" x="0px"
	 y="0px" width="49px" height="45px" viewBox="0 0 49 45" enable-background="new 0 0 49 45" xml:space="preserve">
<path fill="none" d="M8.62,14.01c-1.478,0-2.753-0.809-3.445-2H4.9v28h32v-28H12.063C11.37,13.198,10.096,14.01,8.62,14.01z
	 M24.38,15.01h10v10h-4v-6h-6V15.01z M17.41,33.01v4h-10v-10h4v6H17.41z"/>
<path d="M12.62,10.01c0,0.731-0.212,1.409-0.557,2H36.9v28h-32v-28h0.275c-0.344-0.59-0.555-1.268-0.555-2s0.211-1.41,0.555-2H0.9
	v36h40v-36H12.063C12.408,8.601,12.62,9.279,12.62,10.01z"/>
<path d="M10.62,10.01c0-0.001,0-0.003,0-0.005C10.617,11.112,9.729,12,8.62,12c-1.109,0-1.997-0.888-2-1.995
	c0,0.001,0,0.003,0,0.005c0,1.11,0.89,2,2,2C9.73,12.01,10.62,11.12,10.62,10.01z"/>
<polygon points="16.9,0.01 16.9,4.01 44.9,4.01 44.9,28.01 48.9,28.01 48.9,0.01 "/>
<polygon points="24.38,15.01 24.38,19.01 30.38,19.01 30.38,25.01 34.38,25.01 34.38,15.01 "/>
<polygon points="11.41,27.01 7.41,27.01 7.41,37.01 17.41,37.01 17.41,33.01 11.41,33.01 "/>
<path fill="#FB0033" d="M8.62,12c1.108,0,1.997-0.888,2-1.995c-0.001-0.553-0.224-1.052-0.584-1.412
	c-0.002-0.002-0.004-0.004-0.007-0.006C9.942,8.501,9.848,8.424,9.747,8.355C9.729,8.343,9.71,8.335,9.692,8.323
	C9.604,8.268,9.513,8.217,9.417,8.175C9.386,8.162,9.353,8.153,9.321,8.142C9.233,8.109,9.144,8.079,9.05,8.058
	C9.012,8.05,8.971,8.047,8.932,8.041C8.829,8.025,8.727,8.01,8.62,8.01c-0.104,0-0.204,0.015-0.304,0.03
	C8.273,8.047,8.229,8.05,8.188,8.059C8.104,8.077,8.024,8.105,7.945,8.134C7.902,8.149,7.857,8.161,7.816,8.179
	C7.741,8.211,7.672,8.253,7.603,8.294c-0.04,0.023-0.082,0.043-0.12,0.07c-0.068,0.047-0.13,0.103-0.192,0.158
	C7.259,8.55,7.225,8.575,7.195,8.605C7.128,8.673,7.07,8.748,7.014,8.824C6.996,8.849,6.975,8.87,6.958,8.895
	C6.892,8.994,6.834,9.1,6.786,9.211C6.784,9.216,6.78,9.222,6.778,9.227c-0.101,0.239-0.157,0.501-0.157,0.778
	C6.623,11.112,7.511,12,8.62,12z"/>
<path fill="#FFFFFF" d="M8.718,8.01C8.685,8.008,8.654,8,8.62,8C8.587,8,8.556,8.008,8.523,8.01H8.62H8.718z"/>
<path fill="#FFFFFF" d="M7.603,8.294c0.07-0.041,0.139-0.083,0.214-0.115C7.741,8.211,7.672,8.253,7.603,8.294z"/>
<path fill="#FFFFFF" d="M7.945,8.134c0.08-0.028,0.159-0.057,0.243-0.075C8.104,8.077,8.024,8.105,7.945,8.134z"/>
<path fill="#FFFFFF" d="M7.291,8.521c0.062-0.055,0.124-0.11,0.192-0.158C7.415,8.411,7.353,8.466,7.291,8.521z"/>
<path fill="#FFFFFF" d="M7.014,8.824C7.07,8.748,7.128,8.673,7.195,8.605C7.128,8.673,7.07,8.748,7.014,8.824z"/>
<path fill="#FFFFFF" d="M6.786,9.211C6.834,9.1,6.892,8.994,6.958,8.895C6.891,8.994,6.834,9.1,6.786,9.211z"/>
<path fill="#FFFFFF" d="M6.62,10c0,0.001,0,0.003,0,0.005c0-0.276,0.057-0.539,0.157-0.778C6.677,9.465,6.62,9.726,6.62,10z"/>
<path fill="#FFFFFF" d="M8.523,8.01c-0.071,0.003-0.139,0.02-0.208,0.03c0.1-0.015,0.2-0.03,0.304-0.03H8.523z"/>
<path fill="#FFFFFF" d="M6.958,8.895c0.017-0.025,0.038-0.046,0.056-0.07C6.996,8.849,6.975,8.87,6.958,8.895z"/>
<path fill="#FFFFFF" d="M7.195,8.605c0.03-0.03,0.064-0.055,0.096-0.083C7.259,8.55,7.225,8.575,7.195,8.605z"/>
<path fill="#FFFFFF" d="M8.188,8.059C8.229,8.05,8.273,8.047,8.316,8.04C8.273,8.047,8.229,8.05,8.188,8.059z"/>
<path fill="#FFFFFF" d="M6.778,9.227C6.78,9.222,6.784,9.216,6.786,9.211C6.784,9.216,6.78,9.222,6.778,9.227z"/>
<path fill="#FFFFFF" d="M7.483,8.364c0.038-0.026,0.08-0.046,0.12-0.07C7.563,8.317,7.521,8.337,7.483,8.364z"/>
<path fill="#FFFFFF" d="M7.816,8.179c0.041-0.018,0.086-0.03,0.128-0.045C7.902,8.149,7.857,8.161,7.816,8.179z"/>
<path fill="#FFFFFF" d="M10.62,10c0-0.554-0.225-1.048-0.585-1.407c0.361,0.36,0.583,0.859,0.584,1.412
	C10.62,10.003,10.62,10.001,10.62,10z"/>
<path fill="#FFFFFF" d="M9.747,8.355c0.101,0.068,0.195,0.146,0.281,0.231C9.942,8.501,9.848,8.424,9.747,8.355z"/>
<path fill="#FFFFFF" d="M8.932,8.041C8.86,8.03,8.791,8.013,8.718,8.01H8.62C8.727,8.01,8.829,8.025,8.932,8.041z"/>
<path fill="#FFFFFF" d="M9.417,8.175c0.097,0.042,0.188,0.093,0.275,0.148C9.604,8.268,9.514,8.216,9.417,8.175z"/>
<path fill="#FFFFFF" d="M9.05,8.058c0.093,0.021,0.183,0.051,0.271,0.083C9.233,8.109,9.144,8.079,9.05,8.058z"/>
<path fill="#FFFFFF" d="M8.932,8.041C8.971,8.047,9.012,8.05,9.05,8.058C9.011,8.05,8.971,8.047,8.932,8.041z"/>
<path fill="#FFFFFF" d="M10.028,8.587c0.002,0.002,0.005,0.004,0.007,0.006C10.033,8.591,10.031,8.589,10.028,8.587z"/>
<path fill="#FFFFFF" d="M9.321,8.142c0.032,0.012,0.064,0.02,0.095,0.033C9.386,8.162,9.353,8.153,9.321,8.142z"/>
<path fill="#FFFFFF" d="M9.692,8.323c0.018,0.012,0.038,0.02,0.055,0.032C9.729,8.343,9.71,8.335,9.692,8.323z"/>
</svg>
