<?xml version="1.0" encoding="utf-8"?>
<!-- Generator: Adobe Illustrator 15.1.0, SVG Export Plug-In . SVG Version: 6.00 Build 0)  -->
<!DOCTYPE svg PUBLIC "-//W3C//DTD SVG 1.1//EN" "http://www.w3.org/Graphics/SVG/1.1/DTD/svg11.dtd">
<svg version="1.1" id="레이어_1" xmlns="http://www.w3.org/2000/svg" xmlns:xlink="http://www.w3.org/1999/xlink" x="0px"
	 y="0px" width="51px" height="39px" viewBox="0 0 51 39" enable-background="new 0 0 51 39" xml:space="preserve">
<path fill="#222222" d="M48.15,9.125V0.57h-14v4h7.17L23.86,22.02l-6-6L6.74,27.15l2.82,2.83l8.3-8.301l6,6L36.15,15.39v19.18h-32
	v-24h24.03l4-4H0.15v32h40V11.39l4-4v1.734c0.59-0.343,1.268-0.554,2-0.554S47.56,8.781,48.15,9.125z"/>
<path fill="#222222" d="M46.15,14.56c-1.108,0-1.997-0.888-2-1.995c0,0.001,0,0.003,0,0.005c0,1.11,0.89,2,2,2c1.109,0,2-0.89,2-2
	c0-0.002,0-0.003,0-0.005C48.147,13.672,47.258,14.56,46.15,14.56z"/>
<path fill="#FB0033" d="M46.15,10.57c-1.108,0-1.997,0.887-2,1.995c0.003,1.107,0.892,1.995,2,1.995c1.107,0,1.997-0.888,2-1.995
	C48.147,11.458,47.258,10.57,46.15,10.57z"/>
<path fill="#FFFFFF" d="M46.15,10.56c-1.11,0-2,0.9-2,2v0.005c0.003-1.108,0.892-1.995,2-1.995c1.107,0,1.997,0.887,2,1.995V12.56
	C48.15,11.45,47.26,10.56,46.15,10.56z"/>
</svg>
