<?xml version="1.0" encoding="utf-8"?>
<!-- Generator: Adobe Illustrator 15.1.0, SVG Export Plug-In . SVG Version: 6.00 Build 0)  -->
<!DOCTYPE svg PUBLIC "-//W3C//DTD SVG 1.1//EN" "http://www.w3.org/Graphics/SVG/1.1/DTD/svg11.dtd">
<svg version="1.1" id="레이어_1" xmlns="http://www.w3.org/2000/svg" xmlns:xlink="http://www.w3.org/1999/xlink" x="0px"
	 y="0px" width="49px" height="46px" viewBox="0 0 49 46" enable-background="new 0 0 49 46" xml:space="preserve">
<g>
	<path d="M40.9,2.09c-1.11,0-2,0.89-2,2C38.9,2.99,39.79,2.09,40.9,2.09z"/>
	<path d="M44.346,2.09c0.344,0.59,0.555,1.268,0.555,2s-0.211,1.41-0.555,2H44.9v28h-40v-28h32.555c-0.344-0.59-0.555-1.268-0.555-2
		s0.211-1.41,0.555-2H0.9v36h48v-36H44.346z"/>
	<rect x="18.9" y="41.43" fill="#020000" width="11.991" height="4"/>
	<path fill="#FB0033" d="M40.9,6.09c1.109,0,2-0.89,2-2c0-1.11-0.891-2-2-2c-1.11,0-2,0.9-2,2C38.9,5.2,39.79,6.09,40.9,6.09z"/>
</g>
</svg>
